<mxfile host="app.diagrams.net" agent="Mozilla/5.0 (Windows NT 10.0; Win64; x64) AppleWebKit/537.36 (KHTML, like Gecko) Chrome/131.0.0.0 Safari/537.36" version="25.0.1">
  <diagram name="Página-1" id="8Ap3Mz6oqThBg5mj4Q5R">
    <mxGraphModel dx="956" dy="458" grid="1" gridSize="10" guides="1" tooltips="1" connect="1" arrows="1" fold="1" page="1" pageScale="1" pageWidth="827" pageHeight="1169" math="0" shadow="0">
      <root>
        <mxCell id="0" />
        <mxCell id="1" parent="0" />
        <mxCell id="vDlEDYw84FSZojNBuHFD-1" value="Métodos Globales" style="rounded=1;whiteSpace=wrap;html=1;" vertex="1" parent="1">
          <mxGeometry x="75" y="90" width="120" height="20" as="geometry" />
        </mxCell>
        <mxCell id="vDlEDYw84FSZojNBuHFD-3" value="Function nombreAreaEnBaseArchivo()" style="swimlane;whiteSpace=wrap;html=1;startSize=30;" vertex="1" parent="1">
          <mxGeometry x="20" y="130" width="230" height="200" as="geometry" />
        </mxCell>
        <mxCell id="vDlEDYw84FSZojNBuHFD-9" value="" style="edgeStyle=orthogonalEdgeStyle;rounded=0;orthogonalLoop=1;jettySize=auto;html=1;" edge="1" parent="vDlEDYw84FSZojNBuHFD-3" source="vDlEDYw84FSZojNBuHFD-4">
          <mxGeometry relative="1" as="geometry">
            <mxPoint x="115" y="140" as="targetPoint" />
          </mxGeometry>
        </mxCell>
        <mxCell id="vDlEDYw84FSZojNBuHFD-4" value="&lt;font style=&quot;font-size: 7px;&quot;&gt;Esta función se encarga de obtener el nombre de la área&lt;/font&gt;&lt;div&gt;&lt;font style=&quot;font-size: 7px;&quot;&gt;tomando en cuenta todo el texto ubicado a la derecha de la palabra&amp;nbsp;&lt;/font&gt;&lt;/div&gt;&lt;div&gt;&lt;font style=&quot;font-size: 7px;&quot;&gt;&quot;Encuesta&quot;, esto se utilizará para hacer el match&amp;nbsp;&lt;/font&gt;&lt;/div&gt;&lt;div&gt;&lt;font style=&quot;font-size: 7px;&quot;&gt;cuando se quiera data histórica o el nombre de los servicios.&lt;/font&gt;&lt;/div&gt;" style="text;html=1;align=center;verticalAlign=middle;resizable=0;points=[];autosize=1;strokeColor=none;fillColor=none;" vertex="1" parent="vDlEDYw84FSZojNBuHFD-3">
          <mxGeometry y="40" width="230" height="70" as="geometry" />
        </mxCell>
        <mxCell id="vDlEDYw84FSZojNBuHFD-8" value="&lt;span style=&quot;font-size: 7px;&quot;&gt;&lt;b&gt;Ejemplo:&lt;/b&gt; Si el archivo se llama (EncuestaSistemasTI.xlsm)&lt;/span&gt;&lt;div&gt;&lt;span style=&quot;font-size: 7px;&quot;&gt;El nombre que arroja esta función será: &lt;b&gt;SistemasTI&lt;/b&gt;&lt;/span&gt;&lt;/div&gt;" style="text;html=1;align=center;verticalAlign=middle;resizable=0;points=[];autosize=1;strokeColor=none;fillColor=none;" vertex="1" parent="vDlEDYw84FSZojNBuHFD-3">
          <mxGeometry x="10" y="140" width="210" height="40" as="geometry" />
        </mxCell>
        <mxCell id="vDlEDYw84FSZojNBuHFD-11" value="Sub CrearTituloConVariables(ws As Worksheet, mensaje As String)" style="swimlane;whiteSpace=wrap;html=1;startSize=30;" vertex="1" parent="1">
          <mxGeometry x="20" y="350" width="235" height="125" as="geometry" />
        </mxCell>
        <mxCell id="vDlEDYw84FSZojNBuHFD-13" value="&lt;font style=&quot;font-size: 7px;&quot;&gt;Este método se encarga de asignar un texto en la fila 1 que indica&lt;/font&gt;&lt;div&gt;&lt;font style=&quot;font-size: 7px;&quot;&gt;lo que se realizo en la hoja, así mismo inmoviliza esta fila&amp;nbsp;&lt;/font&gt;&lt;/div&gt;&lt;div&gt;&lt;font style=&quot;font-size: 7px;&quot;&gt;para que se pueda observar desde cualquier punto de la hoja.&lt;/font&gt;&lt;/div&gt;&lt;div&gt;&lt;font style=&quot;font-size: 7px;&quot;&gt;Para usarla solo se llama a la función y se le pone como parámetros:&lt;/font&gt;&lt;/div&gt;&lt;div&gt;&lt;font style=&quot;font-size: 7px;&quot;&gt;*ws -&amp;gt; Nombre de la hoja donde se pondrá el titulo&lt;/font&gt;&lt;/div&gt;&lt;div&gt;&lt;font style=&quot;font-size: 7px;&quot;&gt;*mensaje -&amp;gt; El texto que quiere que sea el titulo&lt;/font&gt;&lt;/div&gt;" style="text;html=1;align=center;verticalAlign=middle;resizable=0;points=[];autosize=1;strokeColor=none;fillColor=none;" vertex="1" parent="vDlEDYw84FSZojNBuHFD-11">
          <mxGeometry x="-5" y="25" width="240" height="100" as="geometry" />
        </mxCell>
      </root>
    </mxGraphModel>
  </diagram>
</mxfile>
